<svg xmlns="http://www.w3.org/2000/svg" xml:space="preserve" id="Layer_1" x="0" y="0" style="enable-background:new 0 0 64 64" version="1.1" viewBox="0 0 64 64"><style>.st11{fill:#eee;stroke:#0277bd;stroke-linecap:round;stroke-linejoin:round;stroke-miterlimit:10}</style><g id="Time_Tracking"><path d="m55.8 19.7-7.5-7.5c-.3-.3-.3-.7 0-1l.4-.4c.3-.3.7-.3 1 0l7.5 7.5c.3.3.3.7 0 1l-.4.4c-.3.3-.7.3-1 0z" class="st11"/><path stroke-width=".99999" d="m45.66 20.958 5.657-5.657 1.415 1.415-5.657 5.656z" class="st11"/><path d="M27.6 7.5h8v8h-8zM37.8 7.5H25.3c-.7 0-1.2-.6-1.2-1.2V3.8c0-.7.6-1.2 1.2-1.2h12.5c.7 0 1.2.6 1.2 1.2v2.5c.1.6-.5 1.2-1.2 1.2z" class="st11"/><circle cx="31.6" cy="36.5" r="25" style="fill:#81d4fa;stroke:#0277bd;stroke-linecap:round;stroke-linejoin:round;stroke-miterlimit:10"/><circle cx="31.6" cy="36.5" r="20" class="st11" transform="rotate(-45.001 31.565 36.5)"/><path d="M44.3 49.2c-7 7-18.4 7-25.5 0" style="fill:none;stroke:#bdbdbd;stroke-linecap:round;stroke-linejoin:round;stroke-miterlimit:10"/><path d="M18.8 23.8c7-7 18.4-7 25.5 0" style="fill:none;stroke:#fff;stroke-linecap:round;stroke-linejoin:round;stroke-miterlimit:10"/><path d="M31.6 16.5v20h20c0-5.1-2-10.2-5.9-14.1-3.9-3.9-9-5.9-14.1-5.9z" style="fill:#ec407a;stroke:#0277bd;stroke-linecap:round;stroke-linejoin:round;stroke-miterlimit:10"/><path d="M31.6 18.5c4.6 0 9.2 1.8 12.7 5.3" style="fill:none;stroke:#f48fb1;stroke-linecap:round;stroke-linejoin:round;stroke-miterlimit:10"/><path d="M31.6 16.5v20h20c0-5.1-2-10.2-5.9-14.1-3.9-3.9-9-5.9-14.1-5.9z" style="fill:none;stroke:#0277bd;stroke-linecap:round;stroke-linejoin:round;stroke-miterlimit:10"/><path d="M31.6 20.5h0c1.1 0 2 .9 2 2v14h-4v-14c0-1.1.9-2 2-2z" style="fill:#ffa726;stroke:#0277bd;stroke-linecap:round;stroke-linejoin:round;stroke-miterlimit:10"/><circle cx="31.6" cy="36.5" r="4" style="fill:#039be5;stroke:#0277bd;stroke-linecap:round;stroke-linejoin:round;stroke-miterlimit:10" transform="rotate(-45.001 31.565 36.5)"/></g></svg>